<svg viewBox="0 0 327 160" fill="none" xmlns="http://www.w3.org/2000/svg">
	<g clip-path="url(#clip0_1308_432)">
		<path fill-rule="evenodd" clip-rule="evenodd" d="M185.436 78.6227C185.644 79.1342 185.399 79.7177 184.887 79.9261L171.877 85.2261C171.366 85.4345 170.782 85.1887 170.574 84.6773C170.366 84.1658 170.611 83.5822 171.123 83.3739L184.133 78.0739C184.644 77.8655 185.228 78.1112 185.436 78.6227Z" fill="#141936"/>
		<path fill-rule="evenodd" clip-rule="evenodd" d="M186.636 81.3527C186.844 81.8642 186.599 82.4477 186.087 82.6561L173.077 87.9561C172.566 88.1645 171.982 87.9187 171.774 87.4073C171.566 86.8958 171.811 86.3123 172.323 86.1039L185.333 80.8039C185.844 80.5955 186.428 80.8413 186.636 81.3527Z" fill="#141936"/>
		<path fill-rule="evenodd" clip-rule="evenodd" d="M187.586 84.0633C187.794 84.5749 187.548 85.1583 187.037 85.3663L174.027 90.6563C173.515 90.8644 172.932 90.6183 172.724 90.1067C172.516 89.595 172.762 89.0117 173.273 88.8036L186.283 83.5136C186.795 83.3056 187.378 83.5517 187.586 84.0633Z" fill="#141936"/>
		<path d="M140.57 159.32H113.34L108.89 102.33H145.02L140.57 159.32Z" fill="#C6C7D8"/>
		<path d="M149.41 98.45H104.5V102.33H149.41V98.45Z" fill="#8F90A6"/>
		<path d="M141.79 94.94H112.12V98.82H141.79V94.94Z" fill="#8F90A6"/>
		<path d="M139.24 93H134.78V96.88H139.24V93Z" fill="#8F90A6"/>
		<path d="M315.99 145.59H130.25L129.71 143.8L128.24 138.95H307.23C311.45 138.95 314.83 141.83 315.99 145.59Z" fill="#004FC4"/>
		<path d="M130.67 152.23C134.685 152.23 137.94 148.975 137.94 144.96C137.94 140.945 134.685 137.69 130.67 137.69C126.655 137.69 123.4 140.945 123.4 144.96C123.4 148.975 126.655 152.23 130.67 152.23Z" fill="#272466"/>
		<path d="M327.45 155.11C327.45 156.17 327.27 157.25 326.89 158.33C326.73 158.78 326.54 159.21 326.31 159.62H136.97L132.58 145.59H317.92C322.3 145.59 325.8 148.47 327 152.23C327.29 153.15 327.45 154.12 327.45 155.11Z" fill="#272466"/>
		<path d="M327.09 152.23H134.66L134.1 150.44L132.58 145.59H318.01C322.39 145.59 325.89 148.47 327.09 152.23Z" fill="#272466"/>
		<path d="M272.21 149.96H254.21V155.19H272.21V149.96Z" fill="#141936"/>
		<path d="M302.72 149.96H291.49V155.19H302.72V149.96Z" fill="#141936"/>
		<path fill-rule="evenodd" clip-rule="evenodd" d="M87.3 136.47C83.8206 136.47 81 139.291 81 142.77C81 146.249 83.8206 149.07 87.3 149.07C90.7794 149.07 93.6 146.249 93.6 142.77C93.6 139.291 90.7794 136.47 87.3 136.47ZM74 142.77C74 135.425 79.9546 129.47 87.3 129.47C94.6454 129.47 100.6 135.425 100.6 142.77C100.6 150.115 94.6454 156.07 87.3 156.07C79.9546 156.07 74 150.115 74 142.77Z" fill="#F26C6E"/>
		<path d="M110.94 159.32H87.25L83.38 123.87H114.82L110.94 159.32Z" fill="#F05152"/>
		<path d="M272.52 75.54C272.52 75.54 283.43 72.1 283.04 73.95C282.66 75.8 275.51 77.76 275.51 77.76C275.51 77.76 282.66 75.38 283.55 77.76C284.44 80.14 278.95 81.42 278.95 81.42L272.52 75.54Z" fill="#9866F5"/>
		<path d="M180.457 76.6272C180.457 76.6272 170.887 62.7572 172.737 59.6272C174.867 56.0072 188.567 59.5572 188.567 59.5572L180.457 76.6272Z" fill="#9866F5"/>
		<path d="M185.397 79.5272C185.397 79.5272 175.827 65.6572 177.677 62.5272C179.807 58.9072 193.507 62.4572 193.507 62.4572L185.397 79.5272Z" fill="#F390BA"/>
		<path d="M197.5 51.1074C197.5 51.1074 208.17 36.6274 212.39 37.0074C217.27 37.4474 219.63 51.4074 219.63 51.4074L197.5 51.1074Z" fill="#9866F5"/>
		<path d="M198.9 55.6873C198.9 55.6873 207.79 41.3773 211.41 41.8173C215.58 42.3273 217.79 56.2973 217.79 56.2973L198.9 55.6873Z" fill="#F390BA"/>
		<path d="M310.71 131.8C310.55 132.4 310.37 133 310.18 133.59C309.33 135.48 308.29 137.28 307.08 138.95H267.66L263.97 139.18L260.72 139.38L216.29 142.19C214.83 141.27 213.41 140.29 212.02 139.27C211.32 138.74 210.63 138.2 209.95 137.65C208.7 136.64 207.48 135.58 206.3 134.47C206.13 134.32 205.96 134.16 205.79 133.99C205.43 133.67 205.08 133.32 204.74 132.98C204.55 132.8 204.36 132.61 204.17 132.42C204.03 132.28 203.9 132.14 203.77 132C202.6 130.8 201.47 129.56 200.38 128.28C200.35 128.24 200.32 128.21 200.28 128.17C199.88 127.69 199.47 127.21 199.08 126.72C198.86 126.47 198.66 126.21 198.45 125.95C198.29 125.76 198.14 125.56 197.99 125.37C198.15 125.57 198.3 125.76 198.46 125.95C201.38 120.8 203.09 116.01 203.64 114.36C203.77 113.96 203.87 113.55 203.93 113.14C204.48 109.6 202.41 106.06 198.89 104.89C194.97 103.58 190.72 105.7 189.41 109.63C189.27 110.05 189.11 110.5 188.93 110.96C188.43 109.98 187.95 108.99 187.49 107.99C186.11 104.97 184.89 101.9 183.84 98.79C183.26 97.06 182.73 95.32 182.25 93.57C181.87 92.2 181.53 90.79 181.22 89.37C179.29 80.51 178.88 70.92 182.36 62.49C183.37 60.04 184.67 57.85 186.2 55.94C186.68 55.33 187.18 54.75 187.71 54.2C187.94 53.95 188.18 53.71 188.42 53.48C188.56 53.34 188.71 53.2 188.86 53.06C189.14 52.8 189.42 52.55 189.71 52.32C189.94 52.12 190.17 51.93 190.4 51.75C190.6 51.58 190.81 51.43 191.01 51.27C191.16 51.16 191.32 51.05 191.47 50.94C191.76 50.73 192.06 50.53 192.36 50.34C192.58 50.19 192.81 50.05 193.04 49.91C193.21 49.8 193.38 49.7 193.56 49.6C194.02 49.33 194.49 49.08 194.97 48.85C202.33 45.16 211.35 44.85 219.64 48.05C227.94 51.25 234.97 56.82 242.61 61.26C252.41 66.95 263.48 70.53 273.83 75.11C284.5 79.83 294.39 85.06 301.92 94.23C304.25 97.08 306.24 100.02 307.85 103.03C307.87 103.08 307.89 103.12 307.91 103.17C308.22 103.85 308.52 104.54 308.8 105.24C308.96 105.65 309.12 106.07 309.28 106.49C309.54 107.2 309.78 107.93 310.01 108.65C310.02 108.69 310.03 108.72 310.04 108.75C310.27 109.48 310.48 110.22 310.67 110.96C311.16 112.9 311.53 114.88 311.76 116.86C311.85 117.59 311.91 118.32 311.96 119.06C312.22 123.33 311.84 127.63 310.71 131.8Z" fill="#9866F5"/>
		<path d="M190.2 113.4C191.2 113.22 192.26 113.08 193.37 112.99C192.49 113.47 191.71 114.14 191.07 114.97C190.77 114.45 190.48 113.93 190.2 113.4Z" fill="#F390BA"/>
		<path d="M224.25 111.53C226.63 129.91 208.66 140.38 208.66 140.38L248.08 125.95C248.08 125.96 221.87 93.15 224.25 111.53Z" fill="#9866F5"/>
		<path d="M191.08 114.96C191.13 115.06 191.17 115.15 191.23 115.24C191.17 115.15 191.12 115.06 191.07 114.97L191.08 114.96Z" fill="#F390BA"/>
		<path d="M260.72 139.38L216.29 142.19C214.83 141.27 213.41 140.29 212.02 139.27C211.32 138.74 210.63 138.2 209.95 137.65C208.7 136.64 207.48 135.58 206.3 134.47C206.13 134.32 205.96 134.16 205.79 133.99C205.43 133.67 205.08 133.32 204.74 132.98C204.41 132.66 204.09 132.33 203.77 132C202.6 130.8 201.47 129.56 200.38 128.28C200.35 128.24 200.32 128.21 200.28 128.17C199.88 127.69 199.47 127.21 199.08 126.72C198.87 126.47 198.66 126.21 198.46 125.95C201.38 120.8 203.09 116.01 203.64 114.36C203.77 113.96 203.87 113.55 203.93 113.14C212.26 113.96 221.89 116.33 231.53 120.22C244.81 125.58 255.23 132.67 260.72 139.38Z" fill="#F390BA"/>
		<path fill-rule="evenodd" clip-rule="evenodd" d="M239.367 110.75C243.096 112.554 244.656 117.039 242.853 120.768L236.101 117.502C242.853 120.768 242.851 120.771 242.849 120.774L242.846 120.782L242.838 120.798L242.819 120.836C242.805 120.864 242.788 120.898 242.769 120.936C242.73 121.014 242.68 121.111 242.619 121.228C242.497 121.461 242.329 121.77 242.115 122.144C241.688 122.891 241.07 123.902 240.253 125.08C238.627 127.423 236.153 130.503 232.734 133.472C225.78 139.508 214.904 145.038 199.958 142.939C195.856 142.363 192.998 138.571 193.574 134.469C194.15 130.367 197.942 127.509 202.044 128.085C211.808 129.456 218.482 125.98 222.901 122.144C225.167 120.177 226.836 118.104 227.93 116.527C228.473 115.746 228.86 115.106 229.097 114.692C229.216 114.485 229.295 114.336 229.337 114.256C229.354 114.225 229.365 114.204 229.369 114.195C231.186 110.496 235.652 108.953 239.367 110.75Z" fill="#9866F5"/>
		<path d="M310.71 131.8C310.55 132.4 310.37 133 310.18 133.59C309.64 135.26 308.98 136.91 308.19 138.52C308.11 138.66 308.04 138.81 307.96 138.95L235.06 140.38C232.66 136.12 230.82 130.03 230.25 125.15C230.21 124.79 230.17 124.43 230.14 124.07C230.08 123.41 230.04 122.71 230.02 122.03C229.38 97.35 254.19 72.56 279.74 78.76C283.59 79.69 287.22 81.24 290.56 83.27C290.57 83.28 290.58 83.28 290.59 83.3C291.11 83.62 291.62 83.94 292.12 84.29C293.86 85.45 295.51 86.75 297.05 88.17C299.04 89.98 300.86 91.98 302.49 94.13C304.6 96.88 306.4 99.88 307.85 103.03C307.87 103.08 307.89 103.12 307.91 103.17C308.22 103.85 308.52 104.54 308.8 105.24C308.96 105.65 309.12 106.07 309.28 106.49C309.54 107.2 309.78 107.93 310.01 108.65C310.02 108.69 310.03 108.72 310.04 108.75C310.27 109.48 310.48 110.22 310.67 110.96C311.16 112.9 311.53 114.88 311.76 116.86C311.85 117.59 311.91 118.32 311.96 119.06C312.22 123.33 311.84 127.63 310.71 131.8Z" fill="#743DD9"/>
		<path d="M271.606 109.435L278.374 129.888L230.196 147.812L222.102 151.078L218.932 152.352L214.739 139.672L217.05 138.444L238 127.305L271.606 109.435Z" fill="#743DD9"/>
		<path d="M215.685 145.15C217.649 144.977 219.1 143.244 218.927 141.28C218.753 139.316 217.02 137.864 215.056 138.038C213.092 138.212 211.641 139.945 211.814 141.909C211.988 143.873 213.721 145.324 215.685 145.15Z" fill="#743DD9"/>
		<path d="M217.315 150.076C219.279 149.902 220.731 148.169 220.557 146.205C220.383 144.241 218.65 142.79 216.686 142.964C214.722 143.137 213.271 144.87 213.445 146.834C213.618 148.798 215.351 150.25 217.315 150.076Z" fill="#743DD9"/>
		<path d="M219.646 154.638C221.61 154.465 223.062 152.732 222.888 150.768C222.714 148.804 220.981 147.352 219.017 147.526C217.053 147.7 215.602 149.433 215.776 151.397C215.949 153.361 217.682 154.812 219.646 154.638Z" fill="#743DD9"/>
		<path d="M307.91 103.17C306.76 103.24 305.6 103.4 304.46 103.65C295.51 105.6 290.82 110.84 288.27 109.93C285.71 109.01 287.35 98.97 299.33 94.91C300.19 94.62 301.06 94.39 301.92 94.23C302.11 94.19 302.3 94.16 302.49 94.13C304.6 96.88 306.4 99.88 307.85 103.03C307.87 103.08 307.89 103.12 307.91 103.17Z" fill="#9866F5"/>
		<path d="M297.05 88.17C296.8 88.17 296.55 88.18 296.3 88.2C295.72 88.24 295.13 88.31 294.55 88.44C290.31 89.36 288.08 91.85 286.87 91.42C285.67 90.98 286.42 86.33 291.93 84.36C291.99 84.33 292.06 84.31 292.12 84.29C293.86 85.45 295.51 86.75 297.05 88.17Z" fill="#9866F5"/>
		<path d="M203.93 113.14C202.75 113.03 201.6 112.94 200.47 112.89C197.94 112.76 195.56 112.79 193.37 112.99C192.38 113.06 191.16 113.15 190.52 113.98C190.21 113.47 190.48 113.92 190.2 113.4C189.76 112.59 189.34 111.78 188.93 110.96C189.11 110.5 189.27 110.05 189.41 109.63C190.72 105.7 194.97 103.58 198.89 104.89C202.41 106.06 204.48 109.6 203.93 113.14Z" fill="#9866F5"/>
		<path d="M203.93 113.14C203.87 113.55 203.77 113.96 203.64 114.36C203.09 116.01 201.38 120.8 198.46 125.95C198.3 125.76 198.15 125.57 197.99 125.37C197.68 124.97 197.38 124.57 197.09 124.17C196.36 123.22 195.67 122.25 195 121.26C194.67 120.79 194.36 120.32 194.05 119.85C193.93 119.68 193.82 119.51 193.71 119.33C193.42 118.88 193.13 118.43 192.85 117.97C192.73 117.78 192.61 117.59 192.5 117.39C192.12 116.79 191.76 116.18 191.42 115.57C191.41 115.56 191.4 115.54 191.39 115.52C191.33 115.43 191.28 115.33 191.23 115.24C191.17 115.15 191.13 115.06 191.08 114.96C191.72 114.13 192.49 113.47 193.37 112.99C195.56 112.79 197.94 112.76 200.47 112.89C201.6 112.94 202.75 113.03 203.93 113.14Z" fill="#F390BA"/>
		<path d="M197.01 124.2L196.08 125.51V125.52C192.86 130.6 188.21 136.05 182.22 138.23C180.14 138.99 178.03 139.32 175.93 139.21C173.48 139.09 171.06 138.39 168.73 137.11C164.66 134.88 163.23 131.63 162.74 129.31C161.27 122.19 166.78 115.07 171.21 109.36C172.02 108.32 172.79 107.32 173.37 106.52C175.49 103.54 175 100 174.99 99.96C174.31 96.32 176.71 92.81 180.35 92.13C181 92.01 181.66 91.99 182.28 92.06C185.17 92.35 187.63 94.51 188.18 97.5C188.32 98.21 189.14 103.25 187.07 108.98C186.46 110.72 185.56 112.54 184.3 114.3C183.56 115.33 182.72 116.43 181.82 117.58C180.38 119.44 177.31 123.4 176.28 125.76C176.78 125.86 177.19 125.78 177.62 125.62C181.45 124.23 186.67 115.77 188.92 110.57C189.25 111.32 196.88 124.03 197.01 124.2Z" fill="#844DE8"/>
		<path d="M201.292 71.0918C200.48 70.8075 200.327 69.7189 201.009 69.1876C202.813 67.8005 205.697 66.0957 206.239 66.6429C206.814 67.2215 206.225 69.5006 205.73 70.8783C205.574 71.3115 205.153 71.6024 204.698 71.5881C203.833 71.5795 202.411 71.4841 201.292 71.0918Z" fill="#141936"/>
		<path fill-rule="evenodd" clip-rule="evenodd" d="M214.882 68.2433C215.404 68.4249 215.679 68.995 215.498 69.5165L214.553 69.1877C215.498 69.5165 215.497 69.517 215.497 69.5174L215.497 69.5183L215.496 69.5203L215.495 69.5249L215.49 69.5367L215.478 69.5707C215.467 69.5979 215.453 69.6339 215.435 69.678C215.398 69.7661 215.345 69.8868 215.272 70.0338C215.126 70.3276 214.902 70.7282 214.576 71.1855C213.924 72.1015 212.865 73.2448 211.226 74.2091C210.75 74.4891 210.138 74.3303 209.857 73.8543C209.577 73.3783 209.736 72.7654 210.212 72.4853C211.574 71.6841 212.432 70.7477 212.947 70.0253C213.205 69.6634 213.376 69.3552 213.48 69.145C213.532 69.04 213.568 68.9598 213.588 68.9101C213.599 68.8853 213.605 68.8681 213.609 68.8594L213.611 68.853C213.795 68.3353 214.362 68.0624 214.882 68.2433Z" fill="#141936"/>
		<path d="M206.523 68.0094C207.149 67.4347 207.457 66.7519 207.211 66.4844C206.965 66.2169 206.259 66.4659 205.633 67.0406C205.007 67.6153 204.699 68.298 204.945 68.5656C205.191 68.8331 205.897 68.5841 206.523 68.0094Z" fill="white"/>
		<path fill-rule="evenodd" clip-rule="evenodd" d="M236.53 45.3997C236.861 45.8413 236.772 46.4682 236.33 46.7997L225.1 55.2297C224.659 55.5613 224.032 55.472 223.7 55.0303C223.369 54.5887 223.458 53.9618 223.9 53.6303L235.13 45.2003C235.571 44.8687 236.198 44.958 236.53 45.3997Z" fill="#141936"/>
		<path fill-rule="evenodd" clip-rule="evenodd" d="M238.379 47.7292C238.711 48.1707 238.622 48.7976 238.181 49.1294L226.951 57.5694C226.509 57.9012 225.882 57.8123 225.551 57.3708C225.219 56.9293 225.308 56.3024 225.749 55.9706L236.979 47.5306C237.421 47.1988 238.048 47.2877 238.379 47.7292Z" fill="#141936"/>
		<path fill-rule="evenodd" clip-rule="evenodd" d="M240.53 50.3997C240.861 50.8413 240.772 51.4682 240.33 51.7997L229.1 60.2297C228.659 60.5613 228.032 60.472 227.7 60.0303C227.369 59.5887 227.458 58.9618 227.9 58.6303L239.13 50.2003C239.571 49.8687 240.198 49.958 240.53 50.3997Z" fill="#141936"/>
		<path d="M192.569 71.5185C191.813 72.2896 190.861 73.0803 189.772 73.8303C186.385 76.1661 182.893 77.118 182.022 75.9736C181.242 74.9642 182.771 72.6116 185.501 70.476C185.846 70.1959 186.193 69.9389 186.576 69.6804C189.988 67.3551 193.456 66.4042 194.339 67.5481C194.924 68.334 194.175 69.8799 192.569 71.5185Z" fill="#FFF1B6"/>
		<path d="M215.569 55.5185C214.813 56.2896 213.861 57.0803 212.772 57.8303C209.385 60.1661 205.893 61.118 205.022 59.9736C204.242 58.9642 205.771 56.6116 208.501 54.476C208.846 54.1959 209.193 53.9389 209.576 53.6804C212.988 51.3551 216.456 50.4042 217.339 51.5481C217.924 52.334 217.175 53.8799 215.569 55.5185Z" fill="#FFF1B6"/>
		<path d="M192.671 71.5107C191.908 72.2827 190.947 73.0743 189.847 73.8253C186.428 76.1642 182.902 77.1182 182.023 75.9731C181.237 74.9632 182.78 72.6081 185.537 70.4699C185.796 70.4246 186.055 70.3793 186.328 70.3567C188.591 70.1256 190.795 70.5683 192.671 71.5107Z" fill="#141936"/>
		<path d="M215.671 55.5107C214.908 56.2827 213.947 57.0743 212.847 57.8253C209.428 60.1642 205.902 61.1182 205.023 59.9731C204.237 58.9632 205.78 56.6081 208.537 54.4699C208.796 54.4246 209.055 54.3793 209.328 54.3567C211.591 54.1256 213.795 54.5683 215.671 55.5107Z" fill="#141936"/>
		<path d="M187.698 72.2807C188.802 72.2358 189.66 71.3046 189.615 70.201C189.57 69.0973 188.639 68.2391 187.536 68.284C186.432 68.329 185.574 69.2601 185.619 70.3638C185.664 71.4674 186.595 72.3257 187.698 72.2807Z" fill="white"/>
		<path d="M210.698 56.2807C211.802 56.2358 212.66 55.3046 212.615 54.201C212.57 53.0973 211.639 52.2391 210.536 52.284C209.432 52.329 208.574 53.2601 208.619 54.3638C208.664 55.4674 209.595 56.3257 210.698 56.2807Z" fill="white"/>
		<path d="M189.99 58.36C189.86 58.42 189.71 58.45 189.57 58.45C189.19 58.45 188.83 58.24 188.66 57.87C188.06 56.6 187.79 55.34 187.71 54.2C187.94 53.95 188.18 53.71 188.42 53.48C188.56 53.34 188.71 53.2 188.86 53.06C189.14 52.8 189.42 52.55 189.71 52.32C189.6 53.59 189.67 55.32 190.47 57.03C190.71 57.53 190.49 58.12 189.99 58.36Z" fill="#4352A0"/>
		<path d="M192.67 55.69C192.53 55.75 192.39 55.78 192.25 55.78C191.87 55.78 191.51 55.57 191.34 55.21C190.79 54.02 190.51 52.84 190.4 51.75C190.6 51.58 190.81 51.43 191.01 51.27C191.16 51.16 191.32 51.05 191.47 50.94C191.76 50.73 192.06 50.53 192.36 50.34C192.35 50.43 192.35 50.51 192.35 50.6C192.35 51.73 192.54 53.05 193.15 54.36C193.38 54.86 193.17 55.45 192.67 55.69Z" fill="#4352A0"/>
		<path d="M195.28 53.6C195.14 53.66 195 53.69 194.85 53.69C194.48 53.69 194.12 53.48 193.95 53.11C193.44 52.01 193.16 50.92 193.04 49.91C193.21 49.8 193.38 49.7 193.56 49.6C194.02 49.33 194.49 49.08 194.97 48.85C195 49.9 195.21 51.09 195.76 52.27C195.99 52.77 195.78 53.36 195.28 53.6Z" fill="#4352A0"/>
	</g>
	<defs>
		<clipPath id="clip0_1308_432">
			<rect width="327" height="160" fill="white"/>
		</clipPath>
	</defs>
</svg>
